<svg id="SvgjsSvg1001" width="288" height="288" xmlns="http://www.w3.org/2000/svg" version="1.1" xmlns:xlink="http://www.w3.org/1999/xlink" xmlns:svgjs="http://svgjs.com/svgjs"><defs id="SvgjsDefs1002"></defs><g id="SvgjsG1008" transform="matrix(0.9167,0,0,0.9167,11.995200000000011,11.995252748870854)"><svg xmlns="http://www.w3.org/2000/svg" enable-background="new 0 0 455.096 455.096" viewBox="0 0 455.096 455.096" width="288" height="288"><path d="M425.379,173.114c-2.434,0-4.825,0.295-7.156,0.88c-5.328-18.406-21.547-31.5-40.94-32.696
				c-29.405-45.301-78.92-72.277-133.007-72.277c-38.63,0-75.845,14.054-104.791,39.571c-27.89,24.586-46.226,58.066-51.869,94.564
				c-15.875,5.666-28.232,19.017-32.31,35.835c-3.688-0.987-7.494-1.485-11.373-1.485C19.708,237.504,0,257.212,0,281.437
				c0,24.225,19.708,43.934,43.932,43.934h75.607c14.271,18.162,32.583,33.228,53.124,43.646
				c22.319,11.32,46.414,17.06,71.613,17.06c85.738,0,155.789-68.421,158.44-153.528h22.663c16.386,0,29.717-13.331,29.717-29.718
				C455.096,186.444,441.765,173.114,425.379,173.114z M10,281.437c0-18.711,15.222-33.933,33.932-33.933
				c4.61,0,9.085,0.909,13.298,2.702c1.45,0.618,3.104,0.514,4.465-0.274c1.362-0.79,2.273-2.175,2.458-3.738
				c2.43-20.517,19.859-35.988,40.543-35.988c22.52,0,40.84,18.321,40.84,40.842c0,3.245-0.391,6.497-1.161,9.664
				c-0.425,1.748,0.121,3.589,1.431,4.822c1.309,1.231,3.177,1.669,4.9,1.138c2.38-0.733,4.858-1.105,7.365-1.105
				c13.732,0,24.904,11.172,24.904,24.903c0,13.73-11.172,24.901-24.904,24.901H43.932C25.222,315.371,10,300.148,10,281.437z
				 M244.275,376.076c-43.35,0-83.521-18.362-111.759-50.705h25.554c19.246,0,34.904-15.656,34.904-34.901
				c0-19.246-15.658-34.903-34.904-34.903c-0.919,0-1.835,0.036-2.747,0.107c0.141-1.539,0.212-3.083,0.212-4.626
				c0-28.034-22.807-50.842-50.84-50.842c-2.203,0-4.376,0.143-6.51,0.416c12.789-69.805,74.375-121.602,146.09-121.602
				c48.768,0,93.562,23.415,121.424,63.01c-20.086,3.881-35.525,20.962-36.894,41.824c-1.018-0.13-2.046-0.195-3.083-0.195
				c-13.478,0-24.443,10.965-24.443,24.443c0,13.479,10.965,24.445,24.443,24.445h66.984
				C390.06,312.139,324.5,376.076,244.275,376.076z M425.379,222.547h-99.656c-7.964,0-14.443-6.48-14.443-14.445
				c0-7.964,6.479-14.443,14.443-14.443c2.087,0,4.122,0.452,6.05,1.345c1.617,0.75,3.515,0.581,4.974-0.445
				c1.46-1.024,2.264-2.75,2.108-4.527c-0.1-1.132-0.147-2.165-0.147-3.158c0-19.671,16.002-35.674,35.672-35.674
				c17.446,0,32.603,12.979,35.256,30.189c0.242,1.57,1.216,2.932,2.623,3.669c1.408,0.736,3.083,0.761,4.511,0.063
				c2.729-1.332,5.627-2.007,8.61-2.007c10.872,0,19.717,8.845,19.717,19.716C445.096,213.702,436.251,222.547,425.379,222.547z" fill="#7c09ad" class="color000 svgShape"></path><path d="M307.965 327.594c-15.783 0-28.623-12.84-28.623-28.621 0-15.783 12.84-28.623 28.623-28.623 15.784 0 28.625 12.84 28.625 28.623C336.59 314.754 323.749 327.594 307.965 327.594zM307.965 280.35c-10.269 0-18.623 8.355-18.623 18.623 0 10.268 8.354 18.621 18.623 18.621 10.27 0 18.625-8.353 18.625-18.621C326.59 288.705 318.234 280.35 307.965 280.35zM208.158 132.374c-10.16 0-18.426-8.266-18.426-18.425 0-10.16 8.266-18.426 18.426-18.426 10.16 0 18.426 8.266 18.426 18.426C226.584 124.108 218.318 132.374 208.158 132.374zM208.158 105.523c-4.646 0-8.426 3.78-8.426 8.426s3.779 8.425 8.426 8.425 8.426-3.779 8.426-8.425S212.805 105.523 208.158 105.523zM191.23 211.902c-19.493 0-35.351-15.858-35.351-35.352 0-19.493 15.858-35.352 35.351-35.352 19.494 0 35.354 15.858 35.354 35.352C226.584 196.043 210.725 211.902 191.23 211.902zM191.23 151.199c-13.978 0-25.351 11.373-25.351 25.352s11.373 25.352 25.351 25.352c13.98 0 25.354-11.373 25.354-25.352S205.21 151.199 191.23 151.199z" fill="#7c09ad" class="color000 svgShape"></path></svg></g></svg>