<svg id="SvgjsSvg1001" width="288" height="288" xmlns="http://www.w3.org/2000/svg" version="1.1" xmlns:xlink="http://www.w3.org/1999/xlink" xmlns:svgjs="http://svgjs.com/svgjs"><defs id="SvgjsDefs1002"></defs><g id="SvgjsG1008" transform="matrix(0.9167,0,0,0.9167,11.9952003177643,11.977904792675389)"><svg xmlns="http://www.w3.org/2000/svg" width="288" height="288" version="1.0" viewBox="0 0 1024 1024"><path d="M5000 10233 c-749 -29 -1433 -284 -2025 -757 -134 -106 -420 -395-525 -529 -366 -468 -603 -1003 -694 -1567 -33 -204 -40 -304 -40 -540 0 -248
9 -373 44 -580 74 -436 246 -879 490 -1265 31 -49 688 -1189 1460 -2532 771
-1344 1406 -2443 1410 -2443 4 0 630 1083 1390 2408 761 1324 1429 2484 1485
2577 166 278 233 413 320 645 148 397 209 746 209 1190 0 236 -7 336 -40 540
-91 564 -328 1099 -694 1567 -105 134 -391 423 -525 529 -475 379 -1000 615
-1585 713 -192 32 -490 52 -680 44z m258 -2134 c304 -33 566 -162 780 -383
171 -177 284 -388 337 -626 25 -113 30 -344 11 -462 -78 -476 -407 -864 -863
-1016 -254 -86 -552 -86 -806 0 -287 96 -528 287 -695 553 -80 128 -150 327
-172 492 -16 113 -8 326 15 433 118 537 568 948 1105 1009 109 12 178 12 288
0z" transform="matrix(.1 0 0 -.1 435 1024) scale(0.12)" fill="#7c09ad" className="color000 svgShape"></path></svg></g></svg>